<?xml version="1.0" encoding="UTF-8" standalone="no"?>
<!-- Uploaded to: SVG Repo, www.svgrepo.com, Generator: SVG Repo Mixer Tools -->

<svg
   fill="#000000"
   height="800px"
   width="800px"
   version="1.1"
   id="Capa_1"
   viewBox="0 0 232.665 232.665"
   xml:space="preserve"
   sodipodi:docname="like-svgrepo-com.svg"
   inkscape:version="1.3.1 (9b9bdc1480, 2023-11-25, custom)"
   xmlns:inkscape="http://www.inkscape.org/namespaces/inkscape"
   xmlns:sodipodi="http://sodipodi.sourceforge.net/DTD/sodipodi-0.dtd"
   xmlns="http://www.w3.org/2000/svg"
   xmlns:svg="http://www.w3.org/2000/svg"><defs
   id="defs1" /><sodipodi:namedview
   id="namedview1"
   pagecolor="#505050"
   bordercolor="#eeeeee"
   borderopacity="1"
   inkscape:showpageshadow="0"
   inkscape:pageopacity="0"
   inkscape:pagecheckerboard="0"
   inkscape:deskcolor="#d1d1d1"
   showgrid="false"
   inkscape:zoom="0.4625"
   inkscape:cx="398.91892"
   inkscape:cy="400"
   inkscape:window-width="1366"
   inkscape:window-height="704"
   inkscape:window-x="0"
   inkscape:window-y="0"
   inkscape:window-maximized="1"
   inkscape:current-layer="Capa_1" />
<g
   id="g1"
   transform="matrix(0.92903853,0,0,0.92903853,12.635074,7.6300115)">
	<path
   d="m 205.428,128.634 c 6.81,-8.589 9.181,-22.092 5.294,-33.304 -3.91,-11.281 -13.395,-17.998 -25.371,-17.998 H 136.36 c -0.162,0 -0.33,-0.019 -0.497,-0.302 -0.161,-0.276 -0.086,-0.42 -0.007,-0.563 6.795,-12.183 11.35,-25.426 14.908,-36.767 3.221,-10.264 1.771,-20.64 -3.975,-28.465 C 141.624,4.201 133.416,0 124.832,0 114.773,0 105.423,5.563 99.18,15.264 94.274,22.887 90.028,30.717 85.922,38.289 79.539,50.06 73.511,61.177 66.974,67.518 61.747,72.584 46.289,82.521 37.052,88.457 c -3.313,2.13 -6.256,3.968 -8.368,5.386 -3.799,2.55 -8.61,5.723 -8.61,12.43 v 79.825 c 0,8.241 5.996,15.127 14.142,16.373 l 27.227,4.158 c 26.337,17.039 51.792,26.036 73.664,26.036 6.078,0 11.935,-0.691 17.388,-2.056 12.962,-3.24 22.223,-9.323 27.514,-18.08 3.309,-5.476 4.446,-11.006 4.613,-15.684 4.776,-2.615 8.59,-6.74 11.017,-12.013 3.602,-7.825 3.639,-16.661 1.9,-23.703 9.013,-8.369 10.696,-22.351 7.889,-32.495 z m -18.754,25.629 c -2.15,1.156 -3.165,3.743 -2.108,5.944 3.784,7.878 3.233,24.127 -8.71,27.308 -2.242,0.598 -3.699,2.704 -3.405,5.006 0.909,7.13 -0.509,20.861 -22.857,26.447 -4.491,1.123 -9.322,1.697 -14.467,1.697 -19.089,0 -42.453,-7.903 -68.421,-24.957 -0.544,-0.357 -1.162,-0.598 -1.806,-0.696 l -28.871,-4.403 c -2.228,-0.341 -3.956,-2.257 -3.956,-4.511 v -79.825 c 0,-1.204 33.353,-20.624 43.171,-30.142 12.427,-12.053 21.31,-34.681 33.983,-54.373 4.405,-6.845 10.201,-9.759 15.584,-9.759 10.103,0 18.831,10.273 14.493,24.104 -4.018,12.804 -8.195,24.237 -13.934,34.529 -4.672,8.376 1.399,18.7 10.989,18.7 h 48.991 c 18.852,0 18.321,26.313 8.552,34.01 -1.676,1.32 -2.182,3.682 -1.175,5.563 3.519,6.572 2.861,20.566 -6.053,25.358 z"
   id="path1"
   style="fill:#000000;fill-opacity:1;stroke:#000000;stroke-width:6.59523;stroke-dasharray:none;stroke-opacity:1" />
</g>
</svg>
