<svg xmlns="http://www.w3.org/2000/svg" width="900" height="600">
  <path d="M0 0v600h900V0Z" style="fill:none;fill-opacity:1;stroke-width:1"/>
  <path d="M152.76 462.78V501h5.26v-38.23Zm68.5 0V501h5.26v-38.23Zm12.8 0V501h5.25v-38.23Zm56.5 0V501h5.25v-38.23Zm12.78 0V501h5.26v-38.23Zm12.79 0V501h5.25v-38.23Zm52.56 0V501h5.25v-38.23Zm8.98 0 13.4 38.5h2.01l13.32-38.5h-5.48l-8.71 26.48h-.14l-8.62-26.48zm70.56 0 13.4 38.5h2.02l13.31-38.5h-5.47l-8.72 26.48h-.13l-8.63-26.48zm70.5 0 13.41 38.5h2.01l13.32-38.5h-5.48l-8.71 26.48h-.13l-8.63-26.48zm32.5 0V501h5.26v-38.23Zm37.37 0 13.4 38.5h2l13.32-38.5h-5.48l-8.72 26.48H603l-8.62-26.48zm32.5 0V501h5.25v-38.23Zm12.78 0V501h5.26v-38.23Zm27.42 0 13.4 38.5h2.02l13.31-38.5h-5.47l-8.72 26.48h-.13l-8.63-26.48zm32.5 0V501h5.25v-38.23Zm12.79 0V501h5.25v-38.23Zm12.78 0V501h5.26v-38.23Zm32.68 0V501h5.25v-38.23Zm9.6 0 9.93 18.94-10.03 19.29h6l7.14-14.11 7.14 14.1h6.04l-9.94-19.28 9.81-18.94h-5.95l-6.92 13.89-7.19-13.9zm57.1 0 9.94 18.94-10.03 19.29h6l7.14-14.11 7.14 14.1H845l-9.95-19.28 9.82-18.94h-5.96l-6.92 13.89-7.18-13.9z" style="font-style:normal;font-variant:normal;font-weight:700;font-stretch:normal;font-size:49.6212px;line-height:1.25;font-family:'Atten New';-inkscape-font-specification:'Atten New Bold';stroke:#000;stroke-width:1;stroke-opacity:1" transform="translate(6)"/>
  <path d="M142.05 573.36c-3.56 0-6.58 1.33-9.06 4.23v-3.63h-4.1v26.82h4.1v-18.3a9.63 9.63 0 0 1 8.34-5.2c3.56 0 6.52 2 6.52 6.23v17.27h4.1V582.9c0-5.74-4.34-9.54-9.9-9.54zm30.93 0c-7.91 0-13.65 6.1-13.65 14.01 0 7.92 5.74 14.02 13.65 14.02 8.03 0 13.77-6.1 13.77-14.02 0-7.91-5.74-14.01-13.77-14.01zm0 3.93c5.26 0 9.55 3.86 9.55 10.08 0 6.16-4.3 10.15-9.55 10.15-5.2 0-9.42-3.99-9.42-10.15 0-6.22 4.23-10.08 9.42-10.08z" style="font-size:45.3333px;line-height:.55;font-family:'Atten New';-inkscape-font-specification:'Atten New';text-align:center;text-anchor:middle;fill:red;stroke-width:1.33255" transform="translate(-78.88 -89.84)"/>
  <path d="M149.86 623.46c-5.24 0-9.04 4.3-9.04 9.8 0 6.01 4.22 9.98 9.94 9.98 2.3 0 4.39-.68 5.71-1.5l1.02-3.66a10.92 10.92 0 0 1-6.56 2.43c-3.67 0-7.08-2.21-7.25-6.9h14.33c.13-.69.17-1.2.17-1.8 0-4.52-3.29-8.35-8.32-8.35zm35.78 0c-5.59 0-9.64 4.3-9.64 9.89 0 5.58 4.05 9.9 9.64 9.9 5.67 0 9.72-4.32 9.72-9.9 0-5.59-4.05-9.9-9.72-9.9zm-13.22.24c-2.35.04-4.4 1.27-5.97 3.47v-3.29h-2.9v18.93h2.9v-12.57c1.8-2.99 4.44-4.27 7.42-3.63l-.43-2.86a7.2 7.2 0 0 0-1.02-.05zm-50.06.18-.64 2.6h11.26l-11.13 15.31v1.02h15.18l.6-2.6h-11.3l11.08-15.26v-1.07zm27.55 2.26a5.23 5.23 0 0 1 5.41 5.12H143.9c.69-3.03 2.9-5.12 6.02-5.12zm35.73.09c3.7 0 6.73 2.73 6.73 7.12 0 4.35-3.02 7.16-6.73 7.16-3.67 0-6.65-2.81-6.65-7.16 0-4.4 2.98-7.12 6.65-7.12z" style="font-size:45.3333px;line-height:.55;font-family:'Atten New';-inkscape-font-specification:'Atten New';text-align:center;text-anchor:middle;fill:red;stroke:red;stroke-width:1" transform="translate(-78.88 -89.84)"/>
  <path d="m163.23 72.74 4.57 22.85h-4.2l-1.13-5.22a24.14 24.14 0 0 1-1.88 3.17 4.3 4.3 0 0 1-1.15 1.11 9.3 9.3 0 0 1-1.7.94 7 7 0 0 1-2.52.57c-.73 0-1.55-.2-2.46-.57a2.84 2.84 0 0 1-1.44-1.25 4.25 4.25 0 0 1-.47-2.03c0-.56.1-1.12.31-1.68a48.8 48.8 0 0 1 1.97-4.83 57.3 57.3 0 0 1 4.65-8.04l1.72-2.4-.5-2.62h4.23m-8.42 18.92c.3.32.7.47 1.21.47.4 0 .82-.08 1.27-.25.46-.17.82-.35 1.1-.53.66-.4 1.2-.78 1.64-1.13a9.07 9.07 0 0 0 1.8-1.97l-1.88-10.75c-.5.76-1.06 1.63-1.64 2.62-.25.4-1 1.73-2.25 3.97-.56.96-1 1.96-1.35 3a8.98 8.98 0 0 0-.5 2.72c0 .83.2 1.45.6 1.85" style="font-style:normal;font-variant:normal;font-weight:400;font-stretch:normal;font-size:40px;line-height:125%;font-family:Lazov;-inkscape-font-specification:Lazov;text-align:start;letter-spacing:0;word-spacing:0;writing-mode:lr-tb;text-anchor:start;fill:#000;fill-opacity:1;stroke:#000;stroke-width:.544315;stroke-opacity:1" transform="translate(-132.5 403) scale(1.83717)"/>
  <g style="font-style:normal;font-variant:normal;font-weight:400;font-stretch:normal;font-size:40px;line-height:125%;font-family:Lazov;-inkscape-font-specification:Lazov;text-align:start;letter-spacing:0;word-spacing:0;writing-mode:lr-tb;text-anchor:start;fill:#000;fill-opacity:1;stroke:#000;stroke-width:.544315;stroke-opacity:1">
    <path d="M159.33 218.43c-.63 0-1.02-.01-1.15-.04-.45-.1-.68-.47-.68-1.11v-20.25c0-.64.13-1.04.4-1.2.3-.17.77-.25 1.43-.25.7 0 1.18.07 1.43.21.26.14.39.55.39 1.24v20.25c0 .5-.13.83-.39.96-.25.13-.72.2-1.43.2" style="fill:#000;fill-opacity:1;stroke:#000;stroke-width:.544315;stroke-opacity:1" transform="translate(546.35 175.52) scale(1.83717)"/>
  </g>
  <g style="font-style:normal;font-variant:normal;font-weight:400;font-stretch:normal;font-size:40px;line-height:125%;font-family:Lazov;-inkscape-font-specification:Lazov;text-align:start;letter-spacing:0;word-spacing:0;writing-mode:lr-tb;text-anchor:start;fill:#000;fill-opacity:1;stroke:#000;stroke-width:.544315;stroke-opacity:1">
    <path d="M213.04 93.23c0 .32-.12.64-.37.95-.24.3-.52.54-.84.73-.85.45-1.88.68-3.09.68h-10.17c-1.12 0-1.68-.64-1.68-1.91V74.14c0-.93.48-1.4 1.44-1.4H207c2.4 0 3.6.68 3.6 2.05 0 .64-.32 1.39-.99 2.24a14.15 14.15 0 0 1-3.38 3.2 21.8 21.8 0 0 1-4.37 2.02 24.4 24.4 0 0 1 4.86 3 21.64 21.64 0 0 1 3.32 3c2 2.22 3.01 3.88 3.01 4.98m-6.02-18.15c0-.22-.18-.38-.54-.47a4.5 4.5 0 0 0-1.14-.13h-3.77c-.28 0-.53.07-.74.21-.2.13-.29.33-.29.59v6.44c1.2-.35 2.2-.84 2.99-1.46.8-.63 1.68-1.66 2.62-3.1.58-.87.87-1.56.87-2.08m1.1 17.38c0-.58-.05-1.06-.16-1.42-.09-.37-.32-.95-.68-1.74a11.27 11.27 0 0 0-2.05-3.05 24.5 24.5 0 0 0-1.9-1.85c-.77-.67-1.35-1-1.76-1-.69 0-1.03.3-1.03.92v8.34c0 .56.16.95.49 1.17.34.21.76.31 1.27.31h3.04c.43 0 .86-.02 1.27-.05.43-.04.8-.16 1.08-.36.28-.2.43-.63.43-1.27" style="fill:#000;fill-opacity:1;stroke:#000;stroke-width:.544315;stroke-opacity:1" transform="translate(-137.91 403) scale(1.83717)"/>
  </g>
  <g style="font-style:normal;font-variant:normal;font-weight:400;font-stretch:normal;font-size:40px;line-height:125%;font-family:Lazov;-inkscape-font-specification:Lazov;text-align:start;letter-spacing:0;word-spacing:0;writing-mode:lr-tb;text-anchor:start;fill:#000;fill-opacity:1;stroke:#000;stroke-width:.544315;stroke-opacity:1">
    <path d="M290.57 94.14h10.63l-5.8-16.42-4.83 16.42m17.3 1.45v3.26c0 .26-.19.54-.58.84-.38.31-.67.47-.88.47-.27 0-.44-.19-.49-.57l-.15-1.23c-.06-.45-.1-.79-.16-1a3 3 0 0 0-.49-1.28c-.27-.33-.75-.5-1.44-.5h-14.22c-.63 0-1.06.11-1.31.32a3.5 3.5 0 0 0-.7 1.23 51.3 51.3 0 0 0-.5 2.29c-.2.5-.42.74-.64.74-.28 0-.54-.14-.78-.43a1.37 1.37 0 0 1-.33-.88V95.6c0-.35.1-.68.3-.98.2-.31.47-.47.81-.47h1.94l6.05-18.9-.92-2.5h4.16l7.58 21.4h1.72c.27 0 .51.15.72.45.21.29.32.62.32 1" style="fill:#000;fill-opacity:1;stroke:#000;stroke-width:.544315;stroke-opacity:1" transform="translate(-153.28 403) scale(1.83717)"/>
  </g>
  <g style="font-style:normal;font-variant:normal;font-weight:400;font-stretch:normal;font-size:40px;line-height:125%;font-family:Lazov;-inkscape-font-specification:Lazov;text-align:start;letter-spacing:0;word-spacing:0;writing-mode:lr-tb;text-anchor:start;fill:#000;fill-opacity:1;stroke:#000;stroke-width:.544315;stroke-opacity:1">
    <path d="M354.3 72.74c2.16 0 4.26.45 6.3 1.36v3.36a13 13 0 0 0-6.14-1.68c-2.6 0-4.41.73-5.45 2.2a9.14 9.14 0 0 0-1.78 4.21h10.98v2.87h-11.1c.25 2.84 1.06 4.82 2.42 5.94a7.63 7.63 0 0 0 4.93 1.66c2.04 0 4.1-.56 6.15-1.68v3.32a14.7 14.7 0 0 1-6.56 1.4c-3.35 0-5.98-1.03-7.9-3.1-1.9-2.07-2.85-4.86-2.85-8.38 0-3.53.98-6.32 2.93-8.38 1.97-2.07 4.66-3.1 8.07-3.1" style="fill:#000;fill-opacity:1;stroke:#000;stroke-width:.544315;stroke-opacity:1" transform="translate(-178.66 403) scale(1.83717)"/>
  </g>
  <g style="font-style:normal;font-variant:normal;font-weight:400;font-stretch:normal;font-size:40px;line-height:125%;font-family:Lazov;-inkscape-font-specification:Lazov;text-align:start;letter-spacing:0;word-spacing:0;writing-mode:lr-tb;text-anchor:start;fill:#000;fill-opacity:1;stroke:#000;stroke-width:.544315;stroke-opacity:1">
    <path d="M393.26 95.59c.23-.66.72-1.24 1.46-1.74.76-.5 1.42-.74 2-.74h.62c.58 0 1.07.03 1.44.1.38.06.89.24 1.53.54 1.57.72 2.73 1.08 3.45 1.08.85 0 1.48-.33 1.88-1 .4-.68.6-1.87.6-3.57a8.9 8.9 0 0 0-.54-3.56c-.35-.8-1.02-1.26-2.01-1.36a87.2 87.2 0 0 1-2.76-.22 5.1 5.1 0 0 1-2.07-.8 4.64 4.64 0 0 1-1.87-2.11 8.84 8.84 0 0 1-.5-3.18c0-1.63.6-3.04 1.77-4.24 1.31-1.37 3.09-2.05 5.33-2.05 2.59 0 4.48.57 5.66 1.72 1.2 1.13 1.8 2.8 1.8 5.02h-3.8c0-1.66-.35-3.01-1.02-4.07-.68-1.05-1.56-1.58-2.64-1.58-.87 0-1.55.46-2.03 1.37-.48.9-.73 2.12-.73 3.67 0 1.32.16 2.42.47 3.32.33.89.84 1.44 1.53 1.66 1.05 0 2.06.07 3.02.2a6.9 6.9 0 0 1 2.3.64 4.6 4.6 0 0 1 2.06 2.13c.3.69.45 1.6.45 2.71 0 1.93-.4 3.5-1.17 4.7a4.22 4.22 0 0 1-3.73 2c-.88 0-1.75-.12-2.62-.37-.87-.23-1.73-.49-2.58-.76-.43 0-1.16.2-2.2.63a5.5 5.5 0 0 0-2.17 1.34 26.17 26.17 0 0 0-2.93-1.48" style="fill:#000;fill-opacity:1;stroke:#000;stroke-width:.544315;stroke-opacity:1" transform="translate(-194.45 403) scale(1.83717)"/>
  </g>
  <g style="font-style:normal;font-variant:normal;font-weight:400;font-stretch:normal;font-size:40px;line-height:125%;font-family:Lazov;-inkscape-font-specification:Lazov;text-align:start;letter-spacing:0;word-spacing:0;writing-mode:lr-tb;text-anchor:start;fill:#000;fill-opacity:1;stroke:#000;stroke-width:.544315;stroke-opacity:1">
    <path d="M459.9 97.25c0 1.47-.67 2.6-2 3.38-1.31.8-3.19 1.19-5.62 1.19-.64 0-1.07-.02-1.29-.06-.2-.02-.46-.18-.76-.47.14-.1.45-.25.94-.45a47.8 47.8 0 0 0 3.32-1.45c.48-.33.77-.67.88-1 .1-.33.15-.7.15-1.1 0-.65-.18-1.08-.55-1.3a3.91 3.91 0 0 0-1.93-.4h-8.57c-.75 0-1.27-.03-1.59-.08-.3-.05-.51-.17-.6-.35-.1-.2-.14-.4-.14-.6 0-.23.02-.38.06-.47.04-.1.15-.3.33-.6l11.16-17.9a2.14 2.14 0 0 0 .4-1.33c0-.34-.72-.5-2.16-.5h-2.78a4.4 4.4 0 0 0-1.46.34c-.4.19-.76.48-1.11.88l-.94 1.14c-.38.92-.74 1.84-1.1 2.75-.2.38-.46.57-.76.57-.74 0-1.11-1.29-1.11-3.85 0-1.15.25-1.93.76-2.36.4-.33 1.13-.5 2.2-.5h11.94c.97 0 1.45.21 1.45.61s-.02.68-.06.82a2.7 2.7 0 0 1-.27.59l-11.18 18.2c-.24.42-.37.7-.37.84 0 .24.34.35 1.02.35h7.2c1.53 0 2.7.36 3.5 1.06a2.63 2.63 0 0 1 1.04 2.05" style="fill:#000;fill-opacity:1;stroke:#000;stroke-width:.544315;stroke-opacity:1" transform="translate(-205.79 403) scale(1.83717)"/>
  </g>
  <g style="font-style:normal;font-variant:normal;font-weight:400;font-stretch:normal;font-size:40px;line-height:125%;font-family:Lazov;-inkscape-font-specification:Lazov;text-align:start;letter-spacing:0;word-spacing:0;writing-mode:lr-tb;text-anchor:start;fill:#000;fill-opacity:1;stroke:#000;stroke-width:.544315;stroke-opacity:1">
    <path d="M502.35 83.4v-9.26c0-.63.13-1.02.4-1.17a3.1 3.1 0 0 1 1.4-.23c.69 0 1.17.07 1.45.21.28.13.43.53.43 1.2v20c0 .66-.13 1.07-.4 1.22-.24.15-.74.22-1.48.22-.75 0-1.21-.05-1.37-.16-.28-.17-.43-.6-.43-1.29v-9.6h-8.38v9.6c0 .67-.12 1.08-.37 1.23-.23.15-.71.22-1.44.22a7.5 7.5 0 0 1-1.12-.04c-.48-.13-.72-.6-.72-1.4v-20c0-.64.12-1.03.35-1.18.25-.15.75-.23 1.49-.23.62 0 .99.01 1.1.04.47.11.71.57.71 1.36v9.26h8.38" style="fill:#000;fill-opacity:1;stroke:#000;stroke-width:.544315;stroke-opacity:1" transform="translate(-217.99 403) scale(1.83717)"/>
  </g>
  <g style="font-style:normal;font-variant:normal;font-weight:400;font-stretch:normal;font-size:40px;line-height:125%;font-family:Lazov;-inkscape-font-specification:Lazov;text-align:start;letter-spacing:0;word-spacing:0;writing-mode:lr-tb;text-anchor:start;fill:#000;fill-opacity:1;stroke:#000;stroke-width:.544315;stroke-opacity:1">
    <path d="M346.26 86.2c-.24 1.34-.75 2.7-1.53 4.1-.5.9-1.12 1.79-1.83 2.67a10.4 10.4 0 0 1-1.86 1.86c-.53.41-1.33.9-2.4 1.48a27.33 27.33 0 0 1-2.33-1.17 14.9 14.9 0 0 1-4.72-5.06 8.24 8.24 0 0 1-1.21-3.89h-3.13c-.48 0-.8.36-.95 1.06l-.32 1.39c-.05.22-.08.43-.1.64-.07.2-.22.3-.42.3-.49 0-.78-.33-.88-.96l-.6-3.81v-.22c0-.39.14-.65.44-.8.4-.18.89-.27 1.48-.27h4.8c.3-1.29.69-2.55 1.18-3.77.5-1.22 1.01-2.18 1.54-2.85a19.8 19.8 0 0 1 2-2.19c.57-.52 1.42-1.18 2.54-1.97l2.4 1.36a14.64 14.64 0 0 1 4.79 5.08 8.7 8.7 0 0 1 1.42 4.34h4.86c.56 0 .98.08 1.25.25.29.16.43.46.43.9 0 .12-.01.22-.04.3l-.6 3.24c-.13.71-.3 1.07-.5 1.07-.33 0-.6-.22-.8-.66l-.38-1.53c-.16-.6-.43-.9-.8-.9h-3.73m-3.7-2.67c-.15-.48-.35-1.03-.6-1.64a7.22 7.22 0 0 0-.63-1.33 10.42 10.42 0 0 0-2.3-2.91c-.8-.68-1.86-1.27-3.2-1.78-.54.72-.99 1.4-1.35 2.07-.35.65-.6 1.23-.76 1.74a10.05 10.05 0 0 0-.3 3.85h9.14m-8.84 2.67c.08.73.17 1.26.29 1.59.12.3.36.77.74 1.38a7.07 7.07 0 0 0 2.9 2.62c.96.5 2.1.9 3.43 1.2a6.8 6.8 0 0 0 .92-1.69 16.57 16.57 0 0 0 .82-3.2 7.45 7.45 0 0 0 .08-1.9h-9.18" style="fill:#000;fill-opacity:1;stroke:#000;stroke-width:.544315;stroke-opacity:1" transform="translate(153.72 403) scale(1.83717)"/>
  </g>
  <path d="M383.2 674.44c-1.37 0-2.22-.1-2.55-.28-.6-.32-.9-1.1-.9-2.37v-35.56a4 4 0 0 1 .93-2.66c.65-.74 1.69-1.11 3.12-1.11h18.99c2.27 0 3.77.37 4.52 1.11.57.55.86 1.58.86 3.09v7c0 1.24-.44 1.86-1.33 1.86a1.7 1.7 0 0 1-1.08-.4 3.22 3.22 0 0 1-.75-1.07l-1.76-4.52a8.71 8.71 0 0 0-1.33-2.58 6.53 6.53 0 0 0-4.52-1.3h-6.92c-.98 0-1.9.2-2.77.58-.83.38-1.25 1-1.25 1.83v33.73c0 1.22-.23 1.97-.68 2.26-.43.26-1.3.4-2.59.4" style="font-style:normal;font-variant:normal;font-weight:400;font-stretch:normal;font-size:40px;line-height:125%;font-family:Lazov;-inkscape-font-specification:Lazov;text-align:start;letter-spacing:0;word-spacing:0;writing-mode:lr-tb;text-anchor:start;fill:#000;fill-opacity:1;stroke:#000;stroke-width:1;stroke-opacity:1" transform="translate(-78.88 -95.84)"/>
  <path d="m768.43 489.74-3.33 4.22c2.5 1.47 5.12 3.1 7.87 4.92l3.52-4.64a289.66 289.66 0 0 0-8.06-4.5zm-296.2.1a78.95 78.95 0 0 1-7.44 5.6 23.05 23.05 0 0 1-6.63 2.97l2.34 5.02c1.91-.55 5.74-.85 11.49-.92a28.5 28.5 0 0 1-2.13 3.26h-14.42v4.97h9.66a38.1 38.1 0 0 1-11.16 6.33 57.47 57.47 0 0 1 3.19 5.72 52.96 52.96 0 0 0 7.43-4.3c.67.9 1.29 1.83 1.85 2.8 6.94-1.72 12.77-3.82 17.49-6.29l-2.82-3.37a78.39 78.39 0 0 1-13.33 4.43 46.87 46.87 0 0 0 5.39-5.32h9.77a38.5 38.5 0 0 0 14.67 11.01 47.66 47.66 0 0 1 3.47-6.18 37.6 37.6 0 0 1-11.15-4.83h9.84v-4.97h-22.9c.44-.69.87-1.39 1.29-2.1l-4.76-1.2 17.11-.33c1.05.84 2 1.66 2.88 2.46l4.36-4.27a204.87 204.87 0 0 0-13.17-9l-4.55 3.19 4.43 3.02-14.93.4a103.6 103.6 0 0 0 11.16-6.94zm465.98 0a76.86 76.86 0 0 1-8.3 16.96c3.16 1.94 5.02 3.1 5.58 3.47a145.4 145.4 0 0 0 4.4-8.48h8.72c-3.09 12.59-10.34 22.32-21.75 29.2 2.04 2.06 3.79 3.94 5.25 5.62a51.02 51.02 0 0 0 14.2-13.78 31.13 31.13 0 0 0 10.18 13.08 225.9 225.9 0 0 1 4.17-6.56c-4.6-2.9-8.1-7.27-10.5-13.08a63.33 63.33 0 0 0 5.11-14.72v-5.58h-12.7a125.7 125.7 0 0 0 1.97-4.73zm-154.17.23v6.42l-7.79.75.8 5.86 6.99-.7v4.12c0 4.72 2.48 7.08 7.45 7.08h5.67c4.4 0 7.06-1.36 7.97-4.08a45 45 0 0 0 1.27-5.48l-6.24-2.35c-.16 1.6-.33 2.88-.51 3.85-.29 1.5-1.32 2.25-3.1 2.25h-3.42c-1.81 0-2.72-.86-2.72-2.58v-3.42l15.94-1.64-.8-5.86-15.14 1.54v-5.76zm-365.54.04-4.26 2.4c.53.65 1.39 1.85 2.58 3.6h-3.99a368.9 368.9 0 0 1-.04-5.95h-6.38c0 1.88.02 3.86.05 5.95h-27.9v5.02h28.09c.56 13.03 1.65 21.72 3.28 26.06 2.15 6.19 5.14 9.19 8.95 9 1.62-.06 2.9-1.23 3.84-3.51.82-2.22 1.41-5.52 1.78-9.9-1.18-.53-2.78-1.28-4.78-2.24a157.2 157.2 0 0 1-.75 7.17c-.09.65-.3 1.01-.65 1.08-.35.06-.7-.2-1.08-.75-2.63-4.22-4.05-13.2-4.27-26.91h11.07v-5.02h-4.7l2.77-1.54a81.3 81.3 0 0 0-3.6-4.46zm-97.5.05v2.49h-18.98v4.3H321v2.02h-15.37V503h37.4v-4.03h-15.46v-2.01h19.08v-4.31h-19.08v-2.49zm520.27 0v9.19h-3.89v5.44h3.89v8.15c-1.31.25-2.69.49-4.12.7l.18 6.2c1.1-.29 2.4-.6 3.94-.94v8.8c0 1.38-.47 2.09-1.4 2.12a30.09 30.09 0 0 1-2.44-.14c.47 2.12.8 4.17.98 6.14 1.72 0 3.33-.08 4.83-.24 2.28-.12 3.42-1.75 3.42-4.87v-13.03l2.72-.61a98 98 0 0 1 .19-5.82c-.9.22-1.88.44-2.9.66v-7.12h2.9v-5.44h-2.9v-9.19zm-128.9.1v6.09h-9.52v5.72h9.51v6.56h-11.48v5.81h11.48v14.72h-4.64v-11.53h-5.62v17.16h21.23v1.5h5.72v-18.66h-5.72v11.53h-4.64v-14.72h11.9v-5.81h-11.9v-6.56h10.64v-5.72H718.7v-6.1zm-153.43.28v3.89h-7.6v4.31h7.6v3.37h-9v4.79h9v3.37h-7.6v4.31h7.6v2.77h-7.64v4.6h7.64v2.71h-9.19v4.03a977.98 977.98 0 0 0-3.65-8.67l-4.83 1.64c.88 2.06 1.7 4.14 2.48 6.24l-6.6.56c1.43-3 2.71-5.97 3.84-8.9h9.23v-4.79h-11.1v-3.42h9.56v-3.75h-9.57v-3.38h9.52v-3.75h-9.52v-3.37h10.7v-4.5h-16.27v22.17h-2.25v4.78h3.89c-1.78 5.31-3.3 8.56-4.55 9.75l1.73 4.69c2.25-.5 6.61-.98 13.08-1.45l.85 2.48 5.2-1.97-1.45-3.7h8.9v6.84h5.9v-6.84h12.06v-4.69h-12.05v-2.72h9.7v-4.6h-9.7v-2.76h9.94v-7.68h2.34v-4.79h-2.34v-7.68h-9.94v-3.9zm57.28 0a91.9 91.9 0 0 1-8.9 21.18c.93 3.75 1.6 6.58 2.01 8.49a79.35 79.35 0 0 0 3.57-5.35v21.2h6.18v-33.48c1.38-3.3 2.61-6.8 3.7-10.45zm260.4.37v35.72c0 2-.83 3-2.49 3a160 160 0 0 1-3.66-.05c.5 2.4.88 4.5 1.13 6.28.84.04 2.31 0 4.4-.09 3.97-.12 5.96-2.42 5.96-6.89v-37.97zm-648.52.85v4.35h16.73v2.02h-18.8v9.8h5.44v-5.53h13.36v6.93c-.62.58-1.33 1.14-2.1 1.7V509h-12.2v3h10.6c-3.94 2.28-9.52 4.21-16.73 5.8a34.46 34.46 0 0 1 2.71 4.93c1.5-.4 2.99-.83 4.46-1.31v3.98h24.56l-8.58 3.7-12.51-3.32-3.57 3.75c8.13 2.3 16.27 4.73 24.43 7.26l4.73-3.89-6.96-2.08 10.76-5.6v-3.62c1.28.4 2.59.74 3.93 1.04a31.3 31.3 0 0 1 2.77-5.25c-6.69-.93-12.28-2.72-16.78-5.4h10.45v-3h-12.1v1.95a21.4 21.4 0 0 1-2.2-1.66v-6.9h13.36v5.54h5.44v-9.8h-18.8v-2.02h16.74v-4.35zm622.69.18v17.25h3.51c.03 1.44.02 2.78-.05 4.03h-4.07v5.44h3.56c-.88 5.53-3.06 10.05-6.56 13.55a34.72 34.72 0 0 1 4.3 4.31c4.38-4.5 6.98-10.45 7.79-17.86h3.14c-.06 3.97-.12 6.75-.19 8.35-.03 1.71-.6 2.6-1.73 2.67-1.72-.03-3-.1-3.84-.19.46 1.62.89 3.7 1.26 6.23 1.63 0 3.31-.09 5.06-.28 2.94-.28 4.46-3.01 4.55-8.2.06-5.47.1-10.14.1-14.02h-7.88c.06-1.3.1-2.65.14-4.03h6.66v-17.25zm-165.05.33v44.4h5.72V497.8h4.36a2559.3 2559.3 0 0 1-4.17 12.38c2.71 3.12 4.07 6.22 4.07 9.28 0 1.56-.8 2.34-2.39 2.34-.6 0-1.18-.04-1.78-.14.6 2.28 1 4.61 1.22 6.99 3.1-.16 5.25-.83 6.47-2.02 1.25-1.25 1.87-3.14 1.87-5.67 0-4.69-1.3-8.52-3.93-11.49 1.43-4.15 2.92-8.25 4.45-12.28v-4.92zm228.6.8v6.42h5.07v8.1h-4.69v6.48h4.7v9.65c-1.88.57-3.79 1.11-5.73 1.64l1.69 7.04c7.9-3.22 13.42-5.32 16.55-6.29a90.96 90.96 0 0 1-.38-6.75c-1.9.82-3.89 1.58-5.95 2.3v-7.6h4.64v-6.46h-4.64v-8.11h5.62v-6.42zm-291.09.6v5.59h6.99l-1.08 9.84h-6.7v5.67h6.1l-1.41 13.36h-6v5.63h32.76v-5.63h-3.94V509.1h-14.15l1.08-9.84h15.04v-5.58zm246.2.76v31.5h4.68v-31.5zm-105.38 2.72-3.33 4.36a154.3 154.3 0 0 1 7.78 4.96l3.38-4.82a259.94 259.94 0 0 0-7.83-4.5zm92.06.14h5.06v6.56h-5.06zm-291.28 1.45h4.6v3.37h-4.6zm-184.22 4.27v3.75h23.72V503zm394.92 1.07a191.28 191.28 0 0 1-12.94 6.75l2.35 5.77a593.87 593.87 0 0 1 12.89-6.9 50.78 50.78 0 0 1-2.3-5.62zm-542.58.1v3.04h9.75v-3.04zm19.74 0v3.04h9.7v-3.04zm49.36.51v9.28h6v-4.96h32.43v4.96h6v-9.28zm262.78 2.2h4.6v3.38h-4.6zm-185.16 1.74v3.75h26.06v-3.75zM310 510.6v3.66h28.6v-3.66zm470.67 2.48v4.13h-19.5v5.34h14.34a44.89 44.89 0 0 1-15.09 7.46 37.57 37.57 0 0 1 3.56 5.39c6.82-2.7 12.38-6.32 16.7-10.88v12.05h6.46v-11.58c4.25 4.53 9.87 7.87 16.87 10.03.82-1.6 1.94-3.47 3.38-5.62-6.16-1.25-11.28-3.54-15.38-6.85h14.54v-5.34h-19.41v-4.13zm-532.97.43a53.87 53.87 0 0 0 13.95 7.21H249.6l1.74-1.17a85.12 85.12 0 0 0-4.08-4.6l-4.03 2.54c.84.97 1.7 2.05 2.58 3.23h-12.28a68.72 68.72 0 0 0 14.15-7.21zm132.75.75v12.7h5.86V518h13.08v8.95h5.72v-12.7zm254.77.51h8.1v13.36h-9.5zm-328.55 1.17v11.11h3.94a84.42 84.42 0 0 1 2.1 3.28h-11.52v4.41h46.22v-4.4h-12.24l2.53-3.29h4.22v-11.1zm180.05.99c-5.97 3.25-15.03 5.64-27.19 7.17 1.34 2 2.27 3.6 2.77 4.78 12.56-2.19 21.75-4.98 27.56-8.39zM390 519.6c.03 3.06-.13 5.1-.47 6.1-.6 2.18-4.7 3.91-12.29 5.2a41.58 41.58 0 0 1 3.1 5.71c6.5-1.43 10.76-3.35 12.8-5.76 3.96 1.72 8.18 3.66 12.65 5.81l3.05-5.15a448.2 448.2 0 0 0-13.5-5.2c.34-1.29.5-3.52.47-6.71zm-77.26.56h23.07v2.67h-23.07zm180 2.3c-9.15 4.6-21.03 7.53-35.62 8.81 1 1.78 1.84 3.6 2.53 5.44 15.56-1.69 27.77-5.06 36.61-10.13zm-175.45 4.6h13.31l-2.34 3.27h-8.77a188.6 188.6 0 0 0-2.2-3.28zm5.06-185.32-6.77 4.8c1.05 5.19 2.05 11.7 3 19.5a596.8 596.8 0 0 1 2.27 21.88l.95.23 5.98-1.57c0-2.47-.21-6.53-.63-12.2-.42-5.66-1-11.5-1.73-17.54-.68-6.08-1.4-11.06-2.13-14.94zm67.02 0-6.76 4.8c1.05 5.19 2.04 11.7 2.99 19.5a602.5 602.5 0 0 1 2.28 21.88l.94.23 5.98-1.57c0-2.57-.24-6.8-.7-12.67-.43-5.87-.98-11.64-1.66-17.3 2.57 1.2 5.35 1.8 8.34 1.8 3.98 0 7.18-1.2 9.6-3.61 2.4-2.47 3.72-6.32 3.93-11.57l-5.74-.7c-.26 2.2-.76 3.9-1.5 5.1a5.5 5.5 0 0 1-2.83 2.45c-1.1.42-2.49.63-4.17.63-1.57 0-3.12-.21-4.64-.63a13.37 13.37 0 0 1-4.01-1.81l-.32-1.81a57.2 57.2 0 0 0-.78-4.56zm74.58 0-6.77 4.8c1.05 5.19 2.05 11.7 3 19.5a596.8 596.8 0 0 1 2.27 21.88l.95.23 5.98-1.57c0-2.26-.21-6.03-.63-11.33-.37-5.35-.84-10.8-1.42-16.36a7.32 7.32 0 0 0 4.1 1.18c1.04 0 1.98-.24 2.82-.71a5.93 5.93 0 0 0 2.05-2.2c.79.84 1.8 1.5 3.07 1.97 1.25.47 2.6.7 4.01.7 1.31 0 2.57-.29 3.78-.86 1.2-.63 2.2-1.6 2.98-2.91a9.5 9.5 0 0 0 1.19-4.96c0-1.31-.22-2.78-.64-4.4a28.43 28.43 0 0 0-1.8-4.96l-5.12 1.97c.95 2.72 1.42 4.69 1.42 5.9 0 .89-.24 1.57-.71 2.04s-1.26.71-2.36.71a4.8 4.8 0 0 1-2.67-.63 2.17 2.17 0 0 1-.95-1.81 28.1 28.1 0 0 1 .47-3.7l-4.95-.63a23.9 23.9 0 0 1-.95 4.4c-.31 1-.73 1.69-1.25 2.06a2.8 2.8 0 0 1-1.74.55 4.4 4.4 0 0 1-2.43-.71 4.5 4.5 0 0 1-1.5-2.36c-.26-1.73-.68-4.28-1.26-7.63zm326.94 0-.79.16-12.04 36.66-10.46-36.66-.7-.08-7.56 3.38 15.03 42.8 7.47-1.03 15.5-40.59zm67.41 0-7.4 1.02-15.49 40.52 6.45 4.71.71-.07 12.11-36.66 10.47 36.58.63.08 7.63-3.39zm-299.48.08a35.57 35.57 0 0 0-11.4 3.85c-3.1 1.79-5.43 3.8-7 6.06-1.53 2.2-2.29 4.35-2.29 6.45 0 1.78.7 3.28 2.12 4.48a19.97 19.97 0 0 0 5.9 3.15c-2.93 2.15-5.03 4.28-6.29 6.37a12.12 12.12 0 0 0-1.8 6.22 7.9 7.9 0 0 0 3.45 6.84c2.36 1.58 5.82 2.36 10.39 2.36 2.1 0 4.06-.13 5.9-.4a37.4 37.4 0 0 0 4.87-.94l2.44-6.92-.31-.47-2.44.24c-.26.05-1.34.18-3.22.39-1.84.2-3.36.31-4.57.31-5.92 0-8.89-1.23-8.89-3.7 0-.83.45-1.78 1.34-2.82a17.7 17.7 0 0 1 3.85-3.23 30 30 0 0 1 5.51-2.75l1.57-5.98-.47-.71c-2.67 0-4.9-.16-6.68-.47a11.5 11.5 0 0 1-3.94-1.26c-.84-.58-1.26-1.18-1.26-1.81 0-.84.42-1.68 1.26-2.52.84-.84 2.18-1.65 4.01-2.44a33.6 33.6 0 0 1 7-1.96l1.5-8.03zm371.7.16c-2.3 0-4.51.76-6.6 2.28a17.25 17.25 0 0 0-5.12 5.97 16.43 16.43 0 0 0-1.89 7.56c0 3.4 1.18 6 3.54 7.78 2.41 1.74 5.53 2.6 9.36 2.6 1.94 0 4.01-.29 6.22-.86.84 8.02 1.75 15 2.75 20.92l.7.24 6.85-2.36c-.63-2.83-1.28-6.69-1.97-11.57a196.4 196.4 0 0 1-1.41-12.98c-.47-5.87-1.65-10.6-3.54-14.16-1.89-3.62-4.85-5.42-8.89-5.42zm-242.84.15-.48.47-.7 7.24c1.73.42 3.9.76 6.52 1.03a76.13 76.13 0 0 0 12.04.16c.21 5.97.6 11.6 1.18 16.9.63 5.3 1.42 11.39 2.36 18.26l.32 2.04.7.24 7.16-2.36c-.57-2.94-1.28-7.16-2.12-12.67a585 585 0 0 1-2.13-16.75 168.5 168.5 0 0 1-.94-13.77c-3.04.26-5.98.4-8.81.4-5.66 0-10.7-.4-15.1-1.19zm241.98 7.4c1.57 0 2.77.86 3.61 2.6.84 1.67 1.5 4.35 1.97 8.02-1.63.36-3.1.55-4.4.55-2.1 0-3.76-.32-4.96-.95-1.16-.62-1.73-1.7-1.73-3.22a7.58 7.58 0 0 1 2.75-5.98 4.27 4.27 0 0 1 2.76-1.02zm-303.1.23c-2.95 0-5.6 1.05-7.95 3.15a20.7 20.7 0 0 0-5.43 8.02 28.93 28.93 0 0 0-1.89 10.39c0 5.09 1.16 9.1 3.46 12.03 2.36 2.89 6.3 4.33 11.8 4.33 5.5 0 9.41-1.5 11.72-4.48 2.31-3.05 3.47-7.06 3.47-12.04 0-3.83-.66-7.37-1.97-10.62a18.74 18.74 0 0 0-5.35-7.87 11.89 11.89 0 0 0-7.87-2.9zm.07 7.71a5 5 0 0 1 4.1 2.13 13.44 13.44 0 0 1 2.59 5.42c.63 2.2.94 4.54.94 7 0 5.25-2.57 7.87-7.7 7.87-3 0-5.04-.76-6.14-2.28a9.27 9.27 0 0 1-1.66-5.58c0-2.47.32-4.8.95-7a14.21 14.21 0 0 1 2.67-5.43 5.43 5.43 0 0 1 4.25-2.13zm-382 4.25-5.9 6.45 7 6.53 6.05-6.14a198.7 198.7 0 0 0-3.38-3.46 45.8 45.8 0 0 0-3.77-3.38zm76.45-103.98c-1.57 0-3.07.26-4.5.8a10.85 10.85 0 0 0-6.32 5.87c-.63 1.4-.95 3-.95 4.78 0 1.15.13 2.23.38 3.25.28 1.03.65 2 1.12 2.9a16.07 16.07 0 0 0 3.83 4.73l4.88-4.95a9.45 9.45 0 0 1-1.47-2.26 7.03 7.03 0 0 1-.64-3c0-1.4.37-2.53 1.12-3.38a3.75 3.75 0 0 1 4.18-1.05c.47.15.87.42 1.21.83.36.4.65.95.86 1.65.24.7.35 1.59.35 2.65 0 1.17-.19 2.37-.57 3.6a15.83 15.83 0 0 1-2.07 4.12 43.76 43.76 0 0 1-4.25 5.17c-1.8 1.94-4.15 4.19-7.05 6.76a483.05 483.05 0 0 1 9.41 8.9 46.26 46.26 0 0 1 2.62 2.75c.68.74 1.2 1.4 1.56 1.97.39.56.64 1.05.77 1.47.15.43.22.83.22 1.21 0 .28-.03.53-.1.74a4.97 4.97 0 0 1-.8 1.5c-.2.28-.46.6-.76.99l6.67 4.66a19.14 19.14 0 0 0 2.68-3.7c.66-1.2.99-2.43.99-3.7a7.7 7.7 0 0 0-.74-3.17 17.12 17.12 0 0 0-2.3-3.57 43.12 43.12 0 0 0-3.98-4.37c-1.62-1.6-3.56-3.4-5.84-5.42a101.7 101.7 0 0 0 4.47-4.82 39.8 39.8 0 0 0 3.67-4.91 23.55 23.55 0 0 0 2.48-5.1c.62-1.77.93-3.61.93-5.52 0-2-.34-3.77-1.02-5.3a11.15 11.15 0 0 0-6.54-6.28c-1.45-.54-2.95-.8-4.5-.8zm68.81 0a26.86 26.86 0 0 0-5.39.57 30.2 30.2 0 0 0-7.3 2.43l2.96 7.62a19 19 0 0 1 4.95-2.2 17.2 17.2 0 0 1 4.4-.67c1.4 0 2.69.23 3.86.7a8.57 8.57 0 0 1 3.03 1.98 8.51 8.51 0 0 1 1.98 3.03c.49 1.2.73 2.5.73 3.92a9.74 9.74 0 0 1-2.33 6.51 10.44 10.44 0 0 1-4.72 3.16 13.9 13.9 0 0 0-1.72-3.22 9.95 9.95 0 0 0-2.04-2.17 7.04 7.04 0 0 0-4.31-1.63c-1.66 0-3 .47-4.05 1.4-1.02.94-1.53 2.35-1.53 4.22 0 1.04.21 2.11.64 3.22a10.27 10.27 0 0 0 4.9 5.26c1.2.6 2.53.93 4 1a121.8 121.8 0 0 0 4.53 11.12c1.66 3.56 3.5 7.12 5.52 10.7l7.1-4.7a111.7 111.7 0 0 1-3.12-4.56 137.2 137.2 0 0 1-2.61-4.3 123.44 123.44 0 0 1-4.6-9.07l.03-.1a20.92 20.92 0 0 0 5.2-2.6 16.82 16.82 0 0 0 7.5-14.07c0-2.37-.42-4.61-1.27-6.74a16.94 16.94 0 0 0-9.2-9.38 17.37 17.37 0 0 0-7.14-1.43zm471.47 0-6.96 9.38a447.88 447.88 0 0 0-5.45 7.59c-1.57 2.25-2.94 4.3-4.08 6.12a58.34 58.34 0 0 0-2.81 5.05 24.03 24.03 0 0 0-1.6 4.3c-.34 1.32-.5 2.6-.5 3.86 0 2.04.4 3.92 1.24 5.62.83 1.7 1.94 3.15 3.35 4.37a15.58 15.58 0 0 0 4.9 2.84c1.9.68 3.9 1.02 6 1.02a17 17 0 0 0 5.72-.93 18.22 18.22 0 0 0 4.85-2.55 22 22 0 0 0 4.08-3.9 36.47 36.47 0 0 0 3.44-4.94l-6.79-4.27a40.53 40.53 0 0 1-2.52 3.8 18.69 18.69 0 0 1-2.68 2.9c-.94.78-1.94 1.39-3 1.82a9.19 9.19 0 0 1-6.06.25 5.81 5.81 0 0 1-4.28-6.03c0-.6.07-1.25.2-1.98.15-.72.44-1.6.89-2.64a35.4 35.4 0 0 1 1.98-3.8c.87-1.51 2.03-3.35 3.47-5.52 1.45-2.17 3.24-4.72 5.36-7.66 2.15-2.93 4.73-6.36 7.72-10.3zm68.14 0c-1.96 0-3.75.3-5.36.9a11.68 11.68 0 0 0-6.9 6.48 12.82 12.82 0 0 0-.95 5.03c0 1.8.35 3.61 1.05 5.42a29.84 29.84 0 0 0 3.13 5.65 74.28 74.28 0 0 0 5.07 6.38c2 2.27 4.29 4.8 6.86 7.59a325 325 0 0 1 3.77 4.15 43 43 0 0 1 2.52 3c.63.85 1.1 1.6 1.37 2.23.3.64.44 1.25.44 1.85a3 3 0 0 1-.38 1.56c-.23.45-.66 1.03-1.27 1.76l6.66 4.66a16.46 16.46 0 0 0 2.97-4.38 7 7 0 0 0 .54-1.69c.1-.49.16-.92.16-1.3 0-1.11-.29-2.27-.86-3.48a23.74 23.74 0 0 0-2.52-4.02 83.53 83.53 0 0 0-4.08-4.95l-5.52-6.31c-1.85-2.1-3.5-4-4.95-5.68a70.44 70.44 0 0 1-3.67-4.6 23.8 23.8 0 0 1-2.26-3.82 8.44 8.44 0 0 1-.77-3.38 5.74 5.74 0 0 1 1.4-3.95 4.92 4.92 0 0 1 5.68-1.18c.6.27 1.1.65 1.5 1.14a5.8 5.8 0 0 1 1.3 3.67c.01.76-.08 1.45-.27 2.07-.17.6-.42 1.13-.74 1.6a6.95 6.95 0 0 1-2.4 2.17l3.84 6.31a14.19 14.19 0 0 0 5.93-5.2 13.22 13.22 0 0 0 1.98-7.05c0-1.72-.31-3.35-.93-4.88a11.53 11.53 0 0 0-2.61-4.02 12.35 12.35 0 0 0-4.18-2.71 14.35 14.35 0 0 0-5.55-1.02zm-477.18 1.11v7.18h9.73c1.28 0 2.36.13 3.26.38.89.24 1.61.57 2.17 1 .55.4.94.88 1.18 1.43a4.14 4.14 0 0 1 .06 3.38c-.21.51-.6.97-1.15 1.37-.53.4-1.28.74-2.23 1-.94.23-2.14.34-3.6.34h-5.94v6.77h7.78c1.07 0 2.08.11 3.04.35.95.23 1.8.61 2.51 1.15a5.6 5.6 0 0 1 1.73 2.1c.42.85.64 1.92.64 3.2a7.6 7.6 0 0 1-.42 2.64 5.99 5.99 0 0 1-2.52 3.12c-.51.3-1.01.53-1.5.67-.47-.65-.99-1.31-1.56-1.97a11.52 11.52 0 0 0-4.15-3 6.9 6.9 0 0 0-2.55-.48 5.67 5.67 0 0 0-4.02 1.6 4.88 4.88 0 0 0-1.08 1.65 5.45 5.45 0 0 0-.39 2.05 6.68 6.68 0 0 0 2.43 5.1c.85.74 1.93 1.37 3.25 1.88 1.32.51 2.9.81 4.75.9a65.3 65.3 0 0 1 1.82 2.26c.58.7 1.15 1.47 1.73 2.3a117.02 117.02 0 0 1 4.3 6.86l6.67-4.28a29.52 29.52 0 0 0-6.86-8.7v-.14c2.8-1.12 4.9-2.7 6.28-4.75a12.17 12.17 0 0 0 2.08-6.98c0-1.2-.15-2.33-.45-3.42a10.45 10.45 0 0 0-3.41-5.48 11.58 11.58 0 0 0-2.87-1.82v-.2a10.98 10.98 0 0 0 3.38-12.85 8.4 8.4 0 0 0-2.68-3.41 13.96 13.96 0 0 0-4.79-2.33 25.67 25.67 0 0 0-7.14-.87zm71.68 0a12.4 12.4 0 0 0-.51 3.7c0 1.26.19 2.48.55 3.67.38 1.2.89 2.36 1.53 3.51a26.66 26.66 0 0 0 2.23 3.32 55.6 55.6 0 0 0 5.61 6.03l2.9 2.71c-.88.9-1.74 1.84-2.54 2.84-.81.98-1.52 2-2.14 3.06a17.28 17.28 0 0 0-1.44 3.35 12.74 12.74 0 0 0-.5 3.64c0 1.7.33 3.22 1.01 4.56.7 1.32 1.63 2.45 2.78 3.38 1.17.92 2.5 1.62 4.02 2.1a15.23 15.23 0 0 0 9.31.04c1.5-.49 2.79-1.19 3.9-2.1a10.14 10.14 0 0 0 2.67-3.32 9.59 9.59 0 0 0 1.03-4.47c0-1.3-.2-2.54-.58-3.73-.38-1.21-.9-2.37-1.56-3.48a20.97 20.97 0 0 0-2.33-3.22 38.73 38.73 0 0 0-2.9-3.03c1.4-1.3 2.83-2.64 4.27-4.02 1.47-1.4 2.79-2.9 3.96-4.5a23.55 23.55 0 0 0 2.9-5.2 15.7 15.7 0 0 0 1.05-7.46 8.2 8.2 0 0 0-.25-1.38h-8.1a18.94 18.94 0 0 1 .12 2.08c0 1.79-.26 3.43-.8 4.94a17.73 17.73 0 0 1-2.1 4.21 25.92 25.92 0 0 1-3.03 3.7 67.39 67.39 0 0 1-3.54 3.42c-1.22-1.09-2.4-2.17-3.58-3.26a30.46 30.46 0 0 1-3.09-3.38 16.9 16.9 0 0 1-2.2-3.76c-.55-1.34-.83-2.8-.83-4.37a15.27 15.27 0 0 1 .45-3.58zm82.12 0a51.2 51.2 0 0 0-1.4 5.01 79.3 79.3 0 0 0-.84 4.47c-.2 1.36-.36 2.6-.44 3.73-.07 1.1-.1 2.04-.1 2.81 0 2.55.33 5 1 7.34a19.54 19.54 0 0 0 2.99 6.15 15.1 15.1 0 0 0 4.88 4.25 13.91 13.91 0 0 0 6.7 1.56c1.21 0 2.35-.13 3.41-.38 1.07-.28 2.14-.67 3.22-1.18a85.95 85.95 0 0 0 2.27 7.01c.49 1.32 1.02 2.68 1.6 4.09a80.02 80.02 0 0 0 3.76 7.91 34.12 34.12 0 0 0 2.04 3.29l7.15-4.92a61.95 61.95 0 0 1-6.38-10.56 94.52 94.52 0 0 1-4.63-11.58 13.76 13.76 0 0 0 2.43-3.76 10.83 10.83 0 0 0 .19-7.6 7.41 7.41 0 0 0-1.63-2.55 6.47 6.47 0 0 0-2.26-1.53 6.63 6.63 0 0 0-5.05-.06c-.78.3-1.48.75-2.1 1.37a6.98 6.98 0 0 0-1.5 2.33 8.21 8.21 0 0 0-.57 3.19 10.03 10.03 0 0 0 1.82 6.03 5.85 5.85 0 0 1-3.83 1.3c-.98 0-1.9-.2-2.78-.63a6.1 6.1 0 0 1-2.3-2.04 11.48 11.48 0 0 1-1.56-3.67c-.38-1.49-.57-3.3-.57-5.42a45.35 45.35 0 0 1 .64-7.09c.2-1.3.47-2.67.8-4.11.33-1.47.73-3.05 1.17-4.76zm88.97 0c-.77 0-1.7.03-2.78.07a25.1 25.1 0 0 0-3.41.38c-1.17.21-2.35.54-3.54.99a10.37 10.37 0 0 0-3.16 1.82 9.03 9.03 0 0 0-2.26 2.93 9.71 9.71 0 0 0-.86 4.31c0 1.32.18 2.49.54 3.51a9.07 9.07 0 0 0 1.5 2.71c.66.77 1.42 1.44 2.3 2.01.89.57 1.87 1.08 2.93 1.5v.16a10.87 10.87 0 0 0-3.92 4.72 11.68 11.68 0 0 0-1.06 5.17c0 1.79.33 3.5 1 5.17a12.97 12.97 0 0 0 2.93 4.37 14.9 14.9 0 0 0 4.72 3.03c1.87.74 4 1.11 6.41 1.11a26.16 26.16 0 0 0 6.83-.95 115.79 115.79 0 0 0 3.13 6.5 98.63 98.63 0 0 0 1.72 3.07c.6.98 1.18 1.86 1.75 2.64l6.41-4.72a133 133 0 0 1-4.05-5.23 47.21 47.21 0 0 1-3.32-5.13 7.95 7.95 0 0 0 1.82-2.33c.47-.88.7-1.86.7-2.97a7.75 7.75 0 0 0-2.17-5.3 7.02 7.02 0 0 0-2.42-1.65 7.31 7.31 0 0 0-5.26-.26 3.95 3.95 0 0 0-2.3 2.58 6.48 6.48 0 0 0-.26 1.85 11.43 11.43 0 0 0 1.12 4.6 16 16 0 0 1-3.06.35c-1.15 0-2.2-.2-3.13-.6a6.84 6.84 0 0 1-2.33-1.67 7.78 7.78 0 0 1-2-5.55 9 9 0 0 1 .31-2.39 5.47 5.47 0 0 1 2.94-3.54 6.93 6.93 0 0 1 2.9-.54h7.88v-6.76h-9.95c-.88 0-1.7-.1-2.5-.26a6.82 6.82 0 0 1-2-.77 4.22 4.22 0 0 1-1.37-1.37 3.7 3.7 0 0 1-.51-1.98c0-.87.2-1.58.63-2.13a4.4 4.4 0 0 1 1.73-1.37 9 9 0 0 1 2.58-.7 24 24 0 0 1 3.16-.2h7.14v-7.18zm61.44 0c0 2.85.08 5.73.22 8.62.15 2.87.4 5.68.74 8.42.34 2.74.78 5.38 1.3 7.91a55.3 55.3 0 0 0 2.02 7.05 33.9 33.9 0 0 0 2.87 6.06 21.44 21.44 0 0 0 3.86 4.66c1.46 1.3 3.1 2.3 4.88 3 1.8.7 3.8 1.05 6 1.05 2.61 0 5-.5 7.17-1.5 2.2-1 4.08-2.41 5.65-4.24a19.99 19.99 0 0 0 3.67-6.67c.9-2.61 1.34-5.53 1.34-8.74 0-2.74-.33-5.27-.99-7.59a19.05 19.05 0 0 0-2.84-6.03 13.22 13.22 0 0 0-4.56-3.99 12.63 12.63 0 0 0-6.06-1.43c-1.75 0-3.32.28-4.72.86a10.32 10.32 0 0 0-5.81 5.96 12.89 12.89 0 0 0-.77 4.5c0 1.51.25 3.04.74 4.6.5 1.55 1.3 2.96 2.36 4.24a12.78 12.78 0 0 0 4.11 3.19c1.7.85 3.75 1.34 6.13 1.46v-7.01a11.2 11.2 0 0 1-2.01-.58 5.64 5.64 0 0 1-3.06-2.9 6.46 6.46 0 0 1-.48-2.62c0-.83.1-1.52.32-2.07.21-.55.49-.99.83-1.3.34-.35.7-.58 1.08-.7.4-.16.8-.23 1.18-.23.79 0 1.56.25 2.33.76a6.98 6.98 0 0 1 2.04 2.24c.62.98 1.1 2.18 1.47 3.6.38 1.43.57 3.06.57 4.91 0 1.96-.22 3.78-.67 5.46a14.39 14.39 0 0 1-1.91 4.37 9.71 9.71 0 0 1-3.03 2.93 7.77 7.77 0 0 1-4.02 1.06 7.73 7.73 0 0 1-4.44-1.34 12.3 12.3 0 0 1-3.5-3.83 26.2 26.2 0 0 1-2.62-6 59.3 59.3 0 0 1-1.79-7.88c-.47-2.91-.8-6.07-1.02-9.47-.2-3.43-.32-7.02-.32-10.79zm-505.76 8.01c-2.13 0-4.1.4-5.93 1.22a14.64 14.64 0 0 0-7.85 8.07 15.42 15.42 0 0 0-1.12 5.86 15 15 0 0 0 4.4 10.76 15.86 15.86 0 0 0 4.73 3.25 14.3 14.3 0 0 0 5.77 1.18c2.04 0 3.96-.4 5.74-1.18a15.12 15.12 0 0 0 7.91-8.07 15 15 0 0 0 1.19-5.94c0-2.08-.38-4.04-1.12-5.86a14.5 14.5 0 0 0-3.13-4.82 14.28 14.28 0 0 0-4.69-3.25 14.3 14.3 0 0 0-5.9-1.22zm0 7.02c1.04 0 2 .21 2.87.64.87.4 1.62.98 2.24 1.72a9.13 9.13 0 0 1 1.98 5.74c0 1.15-.2 2.23-.58 3.23-.36 1-.86 1.87-1.5 2.61a7.2 7.2 0 0 1-2.26 1.72 6.25 6.25 0 0 1-5.52 0c-.88-.42-1.64-1-2.3-1.72a8.83 8.83 0 0 1-2.07-5.84 8.35 8.35 0 0 1 1.98-5.74 6.62 6.62 0 0 1 2.26-1.72 6.53 6.53 0 0 1 2.9-.64zm290.97 12.31a30.3 30.3 0 0 1 1.79 1.82c.55.6 1.02 1.2 1.4 1.82a6.8 6.8 0 0 1 1.21 3.89 4.67 4.67 0 0 1-2.55 4.15 4 4 0 0 1-3.28.06 3.95 3.95 0 0 1-2.08-2.26 5.53 5.53 0 0 1-.28-1.82c0-1.42.35-2.74 1.05-3.95.7-1.22 1.62-2.45 2.74-3.7zM253.35 129.74c-1.52 0-2.82.55-3.9 1.66a5.25 5.25 0 0 0-1.63 3.84c0 1.48.54 2.75 1.62 3.81a5.38 5.38 0 0 0 3.9 1.6 5.2 5.2 0 0 0 3.82-1.6 5.2 5.2 0 0 0 1.6-3.81c0-1.5-.54-2.8-1.6-3.88a5.15 5.15 0 0 0-3.81-1.62zm232 0c-1.52 0-2.82.55-3.9 1.66a5.25 5.25 0 0 0-1.63 3.84c0 1.48.54 2.75 1.63 3.81a5.38 5.38 0 0 0 3.9 1.6 5.2 5.2 0 0 0 3.82-1.6 5.2 5.2 0 0 0 1.6-3.81c0-1.5-.54-2.8-1.6-3.88a5.15 5.15 0 0 0-3.82-1.62zm77.34 0c-1.52 0-2.82.55-3.9 1.66a5.25 5.25 0 0 0-1.63 3.84c0 1.48.54 2.75 1.62 3.81a5.38 5.38 0 0 0 3.9 1.6 5.2 5.2 0 0 0 3.82-1.6 5.2 5.2 0 0 0 1.6-3.81c0-1.5-.54-2.8-1.6-3.88a5.15 5.15 0 0 0-3.81-1.62zm154.67 0c-1.52 0-2.82.55-3.9 1.66a5.25 5.25 0 0 0-1.63 3.84c0 1.48.54 2.75 1.62 3.81a5.38 5.38 0 0 0 3.9 1.6 5.2 5.2 0 0 0 3.82-1.6 5.2 5.2 0 0 0 1.6-3.81c0-1.5-.54-2.8-1.6-3.88a5.15 5.15 0 0 0-3.81-1.62zm77.33 0c-1.52 0-2.82.55-3.9 1.66a5.25 5.25 0 0 0-1.63 3.84c0 1.48.54 2.75 1.63 3.81a5.38 5.38 0 0 0 3.9 1.6 5.2 5.2 0 0 0 3.82-1.6 5.2 5.2 0 0 0 1.6-3.81c0-1.5-.54-2.8-1.6-3.88a5.15 5.15 0 0 0-3.82-1.62zm154.67 0c-1.52 0-2.82.55-3.9 1.66a5.25 5.25 0 0 0-1.63 3.84c0 1.48.54 2.75 1.63 3.81a5.38 5.38 0 0 0 3.9 1.6 5.2 5.2 0 0 0 3.82-1.6 5.2 5.2 0 0 0 1.59-3.81c0-1.5-.53-2.8-1.6-3.88a5.15 5.15 0 0 0-3.8-1.62zm-636.2.03c-1.53 0-2.83.55-3.91 1.66a5.4 5.4 0 0 0 0 7.71 5.38 5.38 0 0 0 3.9 1.6 5.2 5.2 0 0 0 3.81-1.6 5.2 5.2 0 0 0 1.6-3.8c0-1.53-.53-2.83-1.6-3.91a5.1 5.1 0 0 0-3.8-1.66zm77.33 0c-1.52 0-2.83.55-3.9 1.66a5.4 5.4 0 0 0 0 7.71 5.38 5.38 0 0 0 3.9 1.6 5.2 5.2 0 0 0 3.81-1.6 5.2 5.2 0 0 0 1.6-3.8c0-1.53-.54-2.83-1.6-3.91a5.1 5.1 0 0 0-3.81-1.66zm77.33 0c-1.52 0-2.82.55-3.9 1.66a5.4 5.4 0 0 0 0 7.71 5.38 5.38 0 0 0 3.9 1.6 5.2 5.2 0 0 0 3.82-1.6 5.2 5.2 0 0 0 1.59-3.8c0-1.53-.53-2.83-1.6-3.91a5.1 5.1 0 0 0-3.8-1.66zm77.34 0c-1.52 0-2.83.55-3.9 1.66a5.4 5.4 0 0 0 0 7.71 5.38 5.38 0 0 0 3.9 1.6 5.2 5.2 0 0 0 3.81-1.6 5.2 5.2 0 0 0 1.6-3.8c0-1.53-.54-2.83-1.6-3.91a5.1 5.1 0 0 0-3.81-1.66zm77.33 0c-1.52 0-2.82.55-3.9 1.66a5.4 5.4 0 0 0 0 7.71 5.38 5.38 0 0 0 3.9 1.6 5.2 5.2 0 0 0 3.82-1.6 5.2 5.2 0 0 0 1.59-3.8c0-1.53-.53-2.83-1.6-3.91a5.1 5.1 0 0 0-3.8-1.66zm77.34 0c-1.52 0-2.83.55-3.9 1.66a5.4 5.4 0 0 0 0 7.71 5.38 5.38 0 0 0 3.9 1.6 5.2 5.2 0 0 0 3.81-1.6 5.2 5.2 0 0 0 1.6-3.8c0-1.53-.54-2.83-1.6-3.91a5.1 5.1 0 0 0-3.81-1.66zm77.33 0c-1.52 0-2.82.55-3.9 1.66a5.4 5.4 0 0 0 0 7.71 5.38 5.38 0 0 0 3.9 1.6 5.2 5.2 0 0 0 3.82-1.6 5.2 5.2 0 0 0 1.59-3.8c0-1.53-.53-2.83-1.6-3.91a5.1 5.1 0 0 0-3.8-1.66zm77.34 0c-1.52 0-2.82.55-3.9 1.66a5.4 5.4 0 0 0 0 7.71 5.38 5.38 0 0 0 3.9 1.6 5.2 5.2 0 0 0 3.81-1.6 5.2 5.2 0 0 0 1.6-3.8c0-1.53-.54-2.83-1.6-3.91a5.1 5.1 0 0 0-3.81-1.66zm-618.68 16.9c-1.52 0-2.83.56-3.9 1.66a5.4 5.4 0 0 0 0 7.72 5.38 5.38 0 0 0 3.9 1.6 5.2 5.2 0 0 0 3.81-1.6 5.2 5.2 0 0 0 1.6-3.81c0-1.52-.54-2.82-1.6-3.9a5.1 5.1 0 0 0-3.81-1.66zm17.53 0c-1.52 0-2.82.56-3.9 1.66a5.4 5.4 0 0 0 0 7.72 5.38 5.38 0 0 0 3.9 1.6 5.2 5.2 0 0 0 3.81-1.6 5.2 5.2 0 0 0 1.6-3.81c0-1.52-.54-2.82-1.6-3.9a5.1 5.1 0 0 0-3.81-1.66zm137.14 0c-1.52 0-2.83.56-3.9 1.66a5.4 5.4 0 0 0 0 7.72 5.38 5.38 0 0 0 3.9 1.6 5.2 5.2 0 0 0 3.81-1.6 5.2 5.2 0 0 0 1.6-3.81c0-1.52-.54-2.82-1.6-3.9a5.1 5.1 0 0 0-3.81-1.66zm172.2 0c-1.52 0-2.82.56-3.9 1.66a5.4 5.4 0 0 0 0 7.72 5.38 5.38 0 0 0 3.9 1.6 5.2 5.2 0 0 0 3.81-1.6 5.2 5.2 0 0 0 1.6-3.81c0-1.52-.54-2.82-1.6-3.9a5.1 5.1 0 0 0-3.81-1.66zm77.33 0c-1.52 0-2.82.56-3.9 1.66a5.4 5.4 0 0 0 0 7.72 5.38 5.38 0 0 0 3.9 1.6 5.2 5.2 0 0 0 3.82-1.6 5.2 5.2 0 0 0 1.6-3.81c0-1.52-.54-2.82-1.6-3.9a5.1 5.1 0 0 0-3.82-1.66zm59.8 0a5.3 5.3 0 0 0-3.9 1.66 5.4 5.4 0 0 0 0 7.72 5.38 5.38 0 0 0 3.9 1.6 5.2 5.2 0 0 0 3.82-1.6 5.2 5.2 0 0 0 1.6-3.81c0-1.52-.54-2.82-1.6-3.9a5.1 5.1 0 0 0-3.81-1.66zm77.34 0c-1.52 0-2.82.56-3.9 1.66a5.4 5.4 0 0 0 0 7.72 5.38 5.38 0 0 0 3.9 1.6 5.2 5.2 0 0 0 3.82-1.6 5.2 5.2 0 0 0 1.59-3.81c0-1.52-.53-2.82-1.6-3.9a5.1 5.1 0 0 0-3.8-1.66zm17.53 0c-1.52 0-2.82.56-3.9 1.66a5.4 5.4 0 0 0 0 7.72 5.38 5.38 0 0 0 3.9 1.6 5.2 5.2 0 0 0 3.82-1.6 5.2 5.2 0 0 0 1.6-3.81c0-1.52-.54-2.82-1.6-3.9a5.1 5.1 0 0 0-3.82-1.66zm59.8 0c-1.51 0-2.81.56-3.9 1.66a5.4 5.4 0 0 0 0 7.72 5.38 5.38 0 0 0 3.9 1.6 5.2 5.2 0 0 0 3.82-1.6 5.2 5.2 0 0 0 1.6-3.81c0-1.52-.54-2.82-1.6-3.9a5.1 5.1 0 0 0-3.81-1.66zm17.54 0c-1.52 0-2.82.56-3.9 1.66a5.4 5.4 0 0 0 0 7.72 5.38 5.38 0 0 0 3.9 1.6 5.2 5.2 0 0 0 3.81-1.6 5.2 5.2 0 0 0 1.6-3.81c0-1.52-.53-2.82-1.6-3.9a5.1 5.1 0 0 0-3.81-1.66zm59.8 0c-1.52 0-2.82.56-3.9 1.66a5.4 5.4 0 0 0 0 7.72 5.38 5.38 0 0 0 3.9 1.6 5.2 5.2 0 0 0 3.82-1.6 5.2 5.2 0 0 0 1.59-3.81c0-1.52-.53-2.82-1.6-3.9a5.1 5.1 0 0 0-3.8-1.66zm-538.47 39.07c-5.05 0-8.96 1.86-11.52 3.9l-.77 9.03c2.5-2.95 6.92-5.57 11.27-5.57 4.29 0 6.97 2.5 6.97 6.4 0 2.62-1.15 5.5-3.77 8.96-3.59 4.67-9.8 11.65-15.88 18.43v3.07h28.1l1.35-7.16h-16.84c9.03-9.73 15.04-16.39 15.04-24 0-7.43-5.05-13.06-13.95-13.06zm77.44 0c-3.65 0-7.62.9-11.07 3.33l-1.09 8.06a16.6 16.6 0 0 1 11.07-4.41c4.35 0 6.85 2.3 6.85 5.7 0 3.57-3.07 5.88-7.74 5.88h-4.87v6.53h5.32c5.82 0 8.38 2.88 8.38 6.4 0 3.97-3.4 6.4-8.13 6.4-4.67 0-8.57-2.11-11.58-4.93l.7 8a17.9 17.9 0 0 0 11.52 3.9c8.9 0 15.3-5.37 15.3-12.99 0-5.05-3.01-8.77-7.56-10.5a10.99 10.99 0 0 0 6.34-9.91c0-7.1-5.76-11.46-13.44-11.46zm241.73 0c-9.92 3.26-20.48 13.12-20.48 28.35 0 10.3 6.65 16.51 14.91 16.51 8.2 0 14.34-6.01 14.34-14.08 0-7.55-5.7-13.12-13.19-13.12-2.24 0-4.73.7-6.91 2.05 2.88-7.55 9.47-12.03 17.34-14.53zm147.52 0c-8.2 0-13.89 4.93-13.89 12.03 0 5.06 2.94 8.26 6.4 10.43-5.18 2.44-7.42 6.21-7.42 10.3 0 6.98 6.27 12.1 15.1 12.1s14.97-5.18 14.97-12.22c0-5.5-3.64-8.9-7.93-11 4.16-2.18 6.85-5.58 6.85-10 0-6.46-5.64-11.64-14.08-11.64zm-612.86.06c-8.64 0-15.56 7.68-15.56 22.53 0 14.85 6.92 22.27 15.56 22.27s15.61-7.42 15.61-22.27-6.97-22.53-15.61-22.53zm691.32 0c-8.19 0-14.33 6.02-14.33 14.08 0 7.55 5.76 13.06 13.24 13.06 2.3 0 4.93-.77 7.1-2.18-2.74 7.56-9.46 12.23-17.53 14.79l5.95 5.05c9.92-3.2 20.48-13.12 20.48-28.29 0-10.24-6.65-16.5-14.9-16.5zm-383.04.58-22.4 29.31v3h19.65v11.27h7.1V218.7h5.64l1.21-6.53h-6.85v-25.8zm214.6 0-1.29 7.17h19.01l-17.34 36.41h8.06l19.01-41.08v-2.5zm-446.28.06-12.28 4.35-.64 7.56 9.92-3.52v35.13h7.48v-43.52zm294.15 0-1.92 22.4 5.3 3.01c1.67-1.4 3.98-2.5 6.6-2.5 4.42 0 7.23 3.01 7.23 6.92 0 4.48-3.52 7.23-8 7.23-5.18 0-9.09-2.43-12.1-5.31l.71 8.25a18.26 18.26 0 0 0 11.78 4.16c9.09.13 15.42-6.01 15.42-14.33 0-7.75-5.63-13.5-13.82-13.5-1.86 0-3.78.38-5.76 1.2l.96-10.68h15.61l1.28-6.85zm242.24 5.95c3.58 0 6.52 2.05 6.52 5.44 0 2.95-2.3 5.57-5.82 6.92-4.35-1.73-7.3-3.33-7.3-6.72 0-3.33 2.76-5.64 6.6-5.64zm-613 .39c4.61 0 7.75 5 7.75 15.42 0 10.3-3.2 15.5-7.74 15.5-4.55 0-7.75-5.2-7.75-15.5 0-10.43 3.2-15.42 7.75-15.42zm691.4 0c4.6 0 7.36 3.77 7.36 9.79v.58a9.9 9.9 0 0 1-7.3 3.32c-3.9 0-6.6-3-6.6-6.84 0-4.04 2.76-6.85 6.54-6.85zm-385.86 6.85v12.54l-9.6.06zm153.99 10.3c4.03 0 6.71 3 6.71 6.85 0 4.03-2.75 6.85-6.46 6.85-4.6 0-7.3-3.72-7.3-9.16 0-.5 0-.96.07-1.4a9.5 9.5 0 0 1 6.97-3.14zm152.38 1.28c3.84 1.47 8.45 2.95 8.45 6.98 0 3.52-3.2 5.76-7.36 5.76-4.36 0-7.43-2.44-7.43-5.96 0-3.2 2.69-5.44 6.34-6.78zM706.53 415.74l-6.66 3a131.7 131.7 0 0 1 4.55 8.48h-21.28v6.66h45.56v-6.66h-23.27l6.16-2.76a137.43 137.43 0 0 0-5.06-8.72zm218.72.75c-.03 3.25-.11 6.73-.24 10.45h-12.04v6.56h11.8c-.34 10.41-4.54 18.07-12.6 22.97 2 2 3.81 3.97 5.44 5.9 8.97-5.87 13.73-15.5 14.3-28.87h8.29v19.93c-.03 5.37 2.13 8.06 6.47 8.06h4.12c3.91 0 6.2-2 6.9-6 .34-1.84.73-4.74 1.17-8.67a116.8 116.8 0 0 1-6.38-2.4c-.22 3.79-.44 6.41-.65 7.88-.22 1.5-.85 2.25-1.88 2.25h-.98c-1.1.1-1.61-.73-1.55-2.48v-25.13h-15.24c.13-3.69.25-7.17.38-10.45zm-151.03.05v14.76l-14.91 1.64.66 6.47 14.25-1.55v13.27c0 6.75 3.3 10.12 9.89 10.12h8.72c2.9 0 5.18-.43 6.84-1.28a5.9 5.9 0 0 0 3.16-3.73 157.9 157.9 0 0 0 2.09-9.42 85.04 85.04 0 0 1-7.17-2.72c-.49 4.06-.84 6.63-1.06 7.7a3.35 3.35 0 0 1-1.52 2.33c-.8.47-1.86.7-3.19.7h-6.6c-2.73 0-4.09-1.4-4.09-4.22V437.1l23.82-2.6-.61-6.52-23.2 2.56v-14zm94.17 1.4-7.13.38c1.19 19.81 6.55 34.39 16.08 43.73 1.88-2.44 3.7-4.7 5.49-6.8-8.41-7.78-13.22-20.21-14.44-37.3zm-260.63.56v5.91h13.22l-1.69 9.38h-10.21v5.9h9.18l-2.67 15.19h-9.51v5.9h46.35v-5.9h-6.98v-21.1h-19.12l1.68-9.37h22.22v-5.9zm-361.4.52a19.5 19.5 0 0 0-14.3 5.86 19.26 19.26 0 0 0-5.86 14.18c0 5.73 2.02 10.55 6.07 14.44 4.06 3.87 8.71 5.8 13.95 5.8 5.12 0 9.72-1.84 13.8-5.55 4.08-3.7 6.12-8.6 6.12-14.7a19.5 19.5 0 0 0-5.77-14.1 18.82 18.82 0 0 0-14.01-5.93zm601.07 0c-.15 16.78-4.26 29.2-12.32 37.27l4.64 6.23c9.84-9.34 14.81-23.72 14.9-43.12zm-315.98.05v43.12h6.8v-3h28.6v2.96h6.79v-43.08zm-75.19 1.12v6.94h39.28v-6.94zm-76.03 1.22v7.03h38.25v-7.03zm158.02 3.99h5.43v8.95c0 4.83-1.8 8.26-5.43 10.29zm11.62 0h4.64V441c0 3.85 1.85 5.77 5.53 5.77h5.54c.28-2.12.68-4.19 1.21-6.19h-3.89c-1.47 0-2.2-.73-2.2-2.2V425.4h6.14v27.46h-28.6v-7.82a86.05 86.05 0 0 1 4.84 3.7c4.53-3.06 6.8-7.69 6.8-13.88zm-303.6.11c3.6 0 6.75 1.32 9.44 3.94a13.21 13.21 0 0 1 4.05 9.9c0 3.88-1.37 7.1-4.12 9.65a13.48 13.48 0 0 1-18.9-.12 13.04 13.04 0 0 1-4.05-9.7c0-3.88 1.35-7.12 4.06-9.73a13.22 13.22 0 0 1 9.51-3.94zm53.9 10.34v6.94h45.28v-6.94zm158.2.19v6.75h35.06v-6.75zm256.55 1.45-6 3.75c6.5 8.94 11.01 15.73 13.55 20.39l6.65-4.17c-3.03-4.97-7.76-11.63-14.2-19.97zm-19.5.42a90.4 90.4 0 0 1-12.99 19.55l5.91 4.5a134.02 134.02 0 0 0 13.83-20.53zm-70.13 1.78h13.22v15.19h-15.89zm-248.43 10.69v7.12h45.09v-7.12zm76.5 2.34v6.94h45.28v-6.94z" style="font-size:64px;line-height:1.25;font-family:'Atten New';-inkscape-font-specification:'Atten New'" transform="translate(-161.94 -105.16)"/>
</svg>
