<?xml version="1.0" encoding="UTF-8"?>
<svg version="1.1" xmlns="http://www.w3.org/2000/svg" width="482" height="512">
<path d="M0 0 C2.37331663 -0.00322661 4.74663309 -0.00659163 7.11994934 -0.01008606 C12.08460956 -0.01604335 17.04925248 -0.01792986 22.01391602 -0.01733398 C27.02176572 -0.0172533 32.02952282 -0.02410752 37.03735352 -0.0378418 C159.83784967 -0.36955101 159.83784967 -0.36955101 197.39453125 17.16796875 C198.10512695 17.49780762 198.81572266 17.82764648 199.54785156 18.16748047 C229.366647 32.31091544 254.45511286 57.0999845 266.18359375 88.26464844 C267.78988083 92.84045308 269.22013587 97.46179411 270.39453125 102.16796875 C270.57129395 102.8755835 270.74805664 103.58319824 270.93017578 104.31225586 C272.52811228 111.42151828 273.00157839 118.58597784 273.39990234 125.84350586 C273.51413437 127.88406285 273.64722682 129.92353789 273.78125 131.96289062 C275.5860546 161.7496856 274.39317198 191.82985186 273.70483398 221.6394043 C273.62059084 225.31018626 273.54448296 228.98100249 273.4753418 232.65209961 C272.89517572 263.28556227 271.9310149 292.68192736 259.39453125 321.16796875 C258.81058594 322.50601563 258.81058594 322.50601563 258.21484375 323.87109375 C245.34553207 351.38479459 220.88475041 369.93049719 193.01171875 380.546875 C173.09313351 387.72563267 152.29323061 390.51788858 131.39453125 393.16796875 C129.94626953 393.35335205 129.94626953 393.35335205 128.46875 393.54248047 C122.45518111 394.28248613 116.43968718 394.77000599 110.39453125 395.16796875 C109.76146057 395.21072937 109.12838989 395.25348999 108.47613525 395.29754639 C51.93421885 399.09024502 -3.03655871 397.84054427 -58.60546875 386.16796875 C-57.89249849 405.31122019 -52.46430784 422.72374747 -38.66796875 436.23046875 C-12.39080325 458.6196863 26.8507331 455.58293137 58.86767578 453.15454102 C78.2735657 451.5122534 97.46903613 448.59140165 116.53759766 444.6550293 C118.06779541 444.34239136 118.06779541 444.34239136 119.62890625 444.0234375 C120.52834961 443.83418701 121.42779297 443.64493652 122.35449219 443.44995117 C123.02770508 443.35689697 123.70091797 443.26384277 124.39453125 443.16796875 C127.42691463 446.20035213 125.94739859 457.1490255 126.01928711 461.4309082 C126.06093581 463.37219162 126.12229468 465.31315748 126.20385742 467.25317383 C126.86934611 483.33879012 126.86934611 483.33879012 123.34814453 487.70605469 C120.72448727 489.30942827 118.33201086 490.28366413 115.39453125 491.16796875 C114.29109375 491.70164062 113.18765625 492.2353125 112.05078125 492.78515625 C79.83817412 505.62235859 46.37095124 512.58894162 11.70874023 512.42871094 C8.96250275 512.41799011 6.21692104 512.42868208 3.47070312 512.44140625 C-11.9725713 512.45417463 -27.22452978 511.26892546 -42.41796875 508.41796875 C-43.77281372 508.16635986 -43.77281372 508.16635986 -45.1550293 507.90966797 C-67.37352528 503.61302976 -88.65791144 496.8635661 -108.60546875 486.16796875 C-109.2799707 485.81331543 -109.95447266 485.45866211 -110.64941406 485.09326172 C-120.39355811 479.95295982 -129.12327906 474.18771194 -137.60546875 467.16796875 C-138.17507324 466.70519531 -138.74467773 466.24242187 -139.33154297 465.765625 C-155.72061012 452.41927294 -168.87164636 437.37394376 -178.91796875 418.73046875 C-179.3145166 418.00456543 -179.71106445 417.27866211 -180.11962891 416.53076172 C-186.81700845 403.65118567 -189.85992925 389.66305925 -192.66796875 375.54296875 C-192.83944427 374.69214722 -193.0109198 373.84132568 -193.18759155 372.96472168 C-203.75488713 320.37162815 -205.08406949 266.93484292 -206.73046875 213.48046875 C-206.75287251 212.75827526 -206.77527626 212.03608177 -206.79835892 211.29200363 C-208.07078136 170.23366462 -208.07078136 170.23366462 -206.85546875 150.23046875 C-206.81289948 149.52407257 -206.7703302 148.81767639 -206.72647095 148.08987427 C-204.27528887 108.67152964 -194.31440178 75.9575934 -166.60546875 47.16796875 C-165.75275391 46.22050781 -165.75275391 46.22050781 -164.8828125 45.25390625 C-133.87795619 11.7908644 -84.60798455 4.09559538 -41.60546875 1.16796875 C-40.4775592 1.08501556 -39.34964966 1.00206238 -38.18756104 0.91659546 C-25.45707114 0.05997087 -12.75553528 0.00414186 0 0 Z " fill="#5C50E7" transform="translate(207.60546875,-0.16796875)"/>
<path d="M0 0 C1.09111084 0.00161133 2.18222168 0.00322266 3.30639648 0.00488281 C15.16308608 0.18282474 27.78115141 1.74272926 37.9375 8.375 C38.72125 8.87902344 39.505 9.38304688 40.3125 9.90234375 C52.59479983 18.15919471 61.57272892 27.45533578 68.44921875 40.578125 C70.77362405 44.94629873 73.35616048 49.15515064 75.9375 53.375 C79.403325 48.29441563 82.69958708 43.14259531 85.875 37.875 C97.1379743 19.50307614 111.01934156 7.05538997 132.25 1.5625 C153.33405117 -2.52808642 176.87752463 -0.30641274 195.1640625 11.44921875 C215.97361049 26.54272634 226.89617925 46.22577373 230.9375 71.375 C232.03054505 79.25520044 232.07268763 87.03771501 232.05102539 94.98266602 C232.05074286 96.44210305 232.05090254 97.90154022 232.0514679 99.36097717 C232.0517533 103.29834781 232.04589824 107.23568761 232.03889394 111.17305112 C232.03261749 115.29700134 232.03205322 119.42095236 232.03086853 123.54490662 C232.02776782 131.34320966 232.0195715 139.14149859 232.00951904 146.93979543 C231.99831866 155.82254178 231.99283758 164.70528882 231.98782361 173.58804047 C231.97738778 191.85036993 231.95905805 210.11268005 231.9375 228.375 C214.1175 228.375 196.2975 228.375 177.9375 228.375 C177.91768066 224.36923828 177.89786133 220.36347656 177.87744141 216.23632812 C177.81034177 202.95701361 177.73280173 189.67777693 177.64997292 176.39855194 C177.60003767 168.35247156 177.5535941 160.30640039 177.515625 152.26025391 C177.4824882 145.24007086 177.44254076 138.21996371 177.39470994 131.19986486 C177.3696583 127.48929072 177.3478166 123.77876551 177.33415604 120.06813049 C178.44379753 93.35539949 178.44379753 93.35539949 170.9375 68.375 C170.36 67.3025 169.7825 66.23 169.1875 65.125 C164.74110147 59.69051291 157.81848989 55.79070605 150.9375 54.375 C139.09752815 53.38720806 126.98023687 53.92534486 117.55078125 61.83203125 C112.04516099 67.09769711 108.86973165 72.8355965 106.8125 80.125 C106.47992188 81.27484375 106.14734375 82.4246875 105.8046875 83.609375 C104.19582901 90.59558936 103.78968095 97.58985504 103.73217773 104.74047852 C103.72227814 105.5220784 103.71237854 106.30367828 103.70217896 107.10896301 C103.67093692 109.65724807 103.64595637 112.20555168 103.62109375 114.75390625 C103.60049188 116.53466743 103.57949463 118.31542407 103.55812073 120.09617615 C103.5032336 124.7567271 103.45367886 129.41731972 103.40527344 134.07794189 C103.34592296 139.68404898 103.27988067 145.29008082 103.21497345 150.89612579 C103.1173844 159.38903746 103.02824131 167.88199998 102.9375 176.375 C85.1175 176.375 67.2975 176.375 48.9375 176.375 C48.89882812 167.34125 48.89882812 167.34125 48.859375 158.125 C48.83416827 154.27860503 48.80780595 150.43228573 48.77734375 146.5859375 C48.72924486 140.49902193 48.68511244 134.41228182 48.66650391 128.32519531 C48.65120816 123.4101359 48.61653814 118.49553985 48.56919098 113.58068848 C48.55450902 111.7183437 48.54646669 109.85593273 48.54561615 107.99353027 C48.53256692 93.72938344 48.27265799 78.72552436 39.109375 66.9765625 C37.9375 65.375 37.9375 65.375 37.9375 63.375 C37.2775 63.375 36.6175 63.375 35.9375 63.375 C34.9375 62.375 33.9375 61.375 32.9375 60.375 C24.13602908 54.26286742 11.63339365 53.07769221 1.203125 54.8359375 C-7.53554957 56.88783623 -13.42146406 60.43614488 -18.375 68 C-23.82419617 78.16116441 -24.50745253 88.52140695 -24.49487305 99.86425781 C-24.50391286 101.27488551 -24.51424543 102.68550542 -24.52575684 104.09611511 C-24.55309294 107.88662732 -24.56257912 111.67698956 -24.56861091 115.46758747 C-24.57805619 119.44343707 -24.60426403 123.4191773 -24.62861633 127.3949585 C-24.672117 134.90626359 -24.70076448 142.41754726 -24.72393972 149.92893958 C-24.75108002 158.48776427 -24.79498571 167.04647803 -24.84022844 175.60522318 C-24.93283913 193.19510452 -25.0024148 210.78497541 -25.0625 228.375 C-42.8825 228.375 -60.7025 228.375 -79.0625 228.375 C-79.13043092 208.85026049 -79.1856057 189.32561785 -79.21793652 169.80078983 C-79.23335263 160.73344225 -79.25434061 151.66617375 -79.28881836 142.59887695 C-79.31888275 134.68842191 -79.33811311 126.77802419 -79.34476548 118.8675136 C-79.34864913 114.68566721 -79.35766416 110.50398469 -79.37969017 106.32219124 C-79.40032584 102.37168424 -79.40628029 98.42140578 -79.40182304 94.47084999 C-79.40263633 93.03473918 -79.4084386 91.59861926 -79.42011642 90.16255569 C-79.52379915 76.73307692 -78.03373816 63.08347539 -73.25 50.4375 C-72.99138184 49.73423584 -72.73276367 49.03097168 -72.46630859 48.30639648 C-65.78261231 30.73892221 -52.65906155 16.16646025 -36.0625 7.375 C-24.16264933 2.29808854 -12.89270381 -0.01994694 0 0 Z " fill="#FEFEFE" transform="translate(166.0625,83.625)"/>
</svg>
