<svg width="30" height="31.869" xmlns="http://www.w3.org/2000/svg"><path d="M12.918.007A4822.885 4822.885 0 0 0 15.22.005c7.635-.021 7.635-.021 9.97 1.07.045.02.089.04.134.062 1.854.879 3.414 2.42 4.143 4.358a9.692 9.692 0 0 1 .296.998c.099.442.128.887.153 1.339.007.127.016.253.024.38.112 1.852.038 3.722-.005 5.576l-.014.685c-.036 1.904-.096 3.732-.876 5.503l-.073.168c-.8 1.711-2.321 2.864-4.054 3.524-1.239.447-2.532.62-3.831.785l-.182.023c-.374.046-.748.077-1.124.101l-.12.008c-3.515.236-6.933.159-10.388-.567.044 1.19.382 2.273 1.24 3.113 1.634 1.392 4.073 1.203 6.064 1.052 1.207-.102 2.4-.284 3.586-.529l.192-.039.17-.036.127-.017c.188.188.096.87.1 1.135.003.121.007.242.012.362.041 1 .041 1-.177 1.272-.164.1-.312.16-.495.215-.069.033-.137.067-.208.1-2.003.799-4.084 1.232-6.239 1.222l-.512.001c-.96 0-1.909-.073-2.853-.25l-.17-.032c-1.382-.267-2.705-.687-3.946-1.352l-.127-.066a9.62 9.62 0 0 1-1.783-1.202c-1.02-.83-1.837-1.765-2.462-2.925l-.074-.136c-.417-.801-.606-1.67-.78-2.549l-.033-.16c-.657-3.27-.74-6.593-.842-9.916l-.004-.136c-.08-2.553-.08-2.553-.004-3.797l.008-.133C.217 6.765.836 4.73 2.56 2.94l.107-.119C4.594.741 7.657.261 10.33.08l.212-.016a35.507 35.507 0 0 1 2.375-.057z" fill="#5c50e7" style="stroke-width:.0621773"/><path d="M10.335 5.217h.206c.737.011 1.521.108 2.153.52l.148.096c.763.513 1.322 1.091 1.75 1.907.144.272.304.533.465.796.215-.316.42-.636.618-.964.7-1.142 1.563-1.916 2.883-2.258 1.311-.254 2.775-.116 3.912.615 1.294.938 1.973 2.162 2.224 3.726.068.49.07.974.07 1.468v.272l-.001.734v.77a1306.134 1306.134 0 0 1-.003 3.111l-.004 3.407H21.4l-.004-.755a1966.48 1966.48 0 0 0-.023-3.978 816.47 816.47 0 0 0-.01-2.001c.068-1.661.068-1.661-.398-3.215l-.11-.202a2.035 2.035 0 0 0-1.134-.668c-.736-.061-1.49-.028-2.076.464-.342.327-.54.684-.668 1.137l-.062.217c-.1.434-.125.869-.13 1.314l-.001.147-.005.475-.004.332-.01.87-.011 1.045-.018 1.585h-3.357l-.005-1.135-.005-.718c-.003-.378-.006-.757-.007-1.135a144.19 144.19 0 0 0-.008-1.264c0-.887-.017-1.82-.586-2.55-.073-.1-.073-.1-.073-.224h-.125l-.186-.187c-.547-.38-1.325-.454-1.973-.344-.544.127-.91.348-1.218.818-.338.632-.38 1.276-.38 1.981l-.002.263-.003.708-.003.741-.006 1.401-.007 1.597c-.006 1.093-.01 2.187-.014 3.28H5.419a2000.618 2000.618 0 0 1-.014-5.333 477.47 477.47 0 0 1-.006-2.255 114.555 114.555 0 0 1-.002-1.005c-.007-.835.086-1.684.384-2.47l.048-.132a4.852 4.852 0 0 1 2.264-2.545c.74-.316 1.44-.46 2.242-.459Z" fill="#fefefe" style="stroke-width:.0621773"/></svg>